<svg id="Capa_1" data-name="Capa 1" xmlns="http://www.w3.org/2000/svg" viewBox="0 0 50 38.3"><defs><style>.cls-1{fill:#fff;}</style></defs><path class="cls-1" d="M11.74,17.66A5.63,5.63,0,1,0,6.11,12,5.64,5.64,0,0,0,11.74,17.66Zm0-7.95A2.32,2.32,0,1,1,9.42,12,2.32,2.32,0,0,1,11.74,9.71Z"/><path class="cls-1" d="M48.34,0H1.66A1.66,1.66,0,0,0,0,1.66v35A1.66,1.66,0,0,0,1.66,38.3H48.34A1.66,1.66,0,0,0,50,36.64v-35A1.66,1.66,0,0,0,48.34,0ZM46.69,3.31V31.12l-11-18.61a1.67,1.67,0,0,0-2.77-.12L21.48,28.17l-6.64-7.28a1.72,1.72,0,0,0-1.28-.54,1.68,1.68,0,0,0-1.24.63l-9,11.26V3.31ZM45.12,35H5.36L13.7,24.56l6.71,7.35a1.64,1.64,0,0,0,1.31.53A1.67,1.67,0,0,0,23,31.76L34.09,16.38Z"/></svg>